<?xml version="1.0" encoding="utf-8"?><svg viewBox="0 0 19 18" xmlns="http://www.w3.org/2000/svg" xmlns:xlink="http://www.w3.org/1999/xlink"><style>:root>svg{display:none}:root>svg:target{display:block}</style><svg fill="none" viewBox="0 0 17 16" id="cart" xmlns="http://www.w3.org/2000/svg"><path d="M16.03 5.272l-.672 4.009c-.083.442-.421.712-.812.717H4.764l-.194 1.14h9.323c.49.039.823.4.83.864-.036.51-.384.858-.83.864H3.58c-.558-.052-.89-.515-.83-1.03l.441-2.5-.67-7.024-1.908-.625C.148 1.494-.042 1.055.067.602c.18-.473.615-.688 1.042-.57L3.545.84c.329.128.518.408.565.735l.142 1.398L15.305 4.26c.508.114.784.533.724 1.011zm-9.923 9.409C6.107 15.409 5.54 16 4.84 16s-1.266-.59-1.266-1.32c0-.728.567-1.319 1.266-1.319.7 0 1.267.591 1.267 1.32zm7.564 0c0 .728-.567 1.319-1.267 1.319s-1.267-.59-1.267-1.32c0-.728.567-1.319 1.267-1.319s1.267.591 1.267 1.32z" fill="#fff"/></svg><svg fill="none" viewBox="0 0 9 18" id="facebook" xmlns="http://www.w3.org/2000/svg"><path d="M2.297 18V9.554H0V6.513h2.297V3.915C2.297 1.875 3.655 0 6.782 0c1.266 0 2.202.118 2.202.118l-.074 2.84s-.954-.01-1.996-.01c-1.128 0-1.309.506-1.309 1.344v2.22H9l-.148 3.042H5.605V18H2.297z" fill="#DE7A69"/></svg><svg fill="none" viewBox="0 0 18 18" id="instagram" xmlns="http://www.w3.org/2000/svg"><path fill-rule="evenodd" clip-rule="evenodd" d="M5.29.054C6.25.01 6.555 0 9 0c2.445 0 2.75.01 3.71.054.958.043 1.613.196 2.186.418.6.227 1.144.581 1.594 1.04.458.448.811.992 1.037 1.592.223.573.375 1.227.419 2.185C17.99 6.25 18 6.556 18 9c0 2.445-.01 2.75-.054 3.71-.043.958-.196 1.612-.419 2.185-.226.6-.58 1.145-1.037 1.595-.45.458-.994.811-1.594 1.037-.573.223-1.228.375-2.185.419-.96.044-1.266.054-3.711.054s-2.75-.01-3.71-.054c-.958-.043-1.612-.196-2.185-.419A4.416 4.416 0 011.51 16.49a4.41 4.41 0 01-1.038-1.594C.25 14.323.098 13.668.054 12.71.01 11.75 0 11.444 0 9c0-2.445.01-2.75.054-3.71.043-.959.196-1.613.418-2.186.227-.6.581-1.144 1.04-1.594.448-.457.992-.812 1.592-1.038C3.677.25 4.331.098 5.29.054zm7.347 1.62c-.95-.043-1.234-.052-3.637-.052s-2.688.009-3.637.052c-.878.04-1.354.187-1.671.31-.42.164-.72.358-1.035.673-.299.29-.529.644-.673 1.035-.123.317-.27.793-.31 1.671-.043.95-.052 1.234-.052 3.637s.009 2.688.052 3.637c.04.878.187 1.354.31 1.671.144.39.374.745.673 1.035.29.299.644.529 1.035.673.317.124.793.27 1.671.31.95.043 1.233.052 3.637.052s2.688-.009 3.637-.052c.878-.04 1.354-.186 1.671-.31.42-.164.72-.358 1.035-.673.299-.29.529-.644.673-1.035.124-.317.27-.793.31-1.671.043-.95.052-1.234.052-3.637s-.009-2.688-.052-3.637c-.04-.878-.186-1.354-.31-1.671a2.794 2.794 0 00-.673-1.035 2.793 2.793 0 00-1.035-.673c-.317-.123-.793-.27-1.671-.31zm-4.787 10.1a3.002 3.002 0 102.162-5.6 3.003 3.003 0 00-2.162 5.6zM5.73 5.73a4.626 4.626 0 116.542 6.542 4.626 4.626 0 01-6.542-6.542zm8.923-.666a1.094 1.094 0 10-1.501-1.592 1.094 1.094 0 001.501 1.592z" fill="#DE7A69"/></svg><svg fill="none" viewBox="0 0 14 10" id="mail" xmlns="http://www.w3.org/2000/svg"><path d="M.446 1.072L6.28 4.429c.196.113.45.166.704.166.256 0 .51-.053.705-.166l5.833-3.357c.38-.22.74-1.072.042-1.072H.405c-.697 0-.338.853.041 1.072zM13.7 2.908l-6.01 3.355c-.264.149-.45.166-.705.166-.255 0-.44-.017-.704-.166C6.015 6.115.732 3.148.3 2.907c-.303-.17-.3.029-.3.182v6.078c0 .35.44.833.778.833h12.444c.338 0 .778-.483.778-.833V3.09c0-.153.003-.353-.301-.182z" fill="#DE7A69"/></svg><svg fill="none" viewBox="0 0 16 16" id="phone" xmlns="http://www.w3.org/2000/svg"><path d="M13.823 9.88a23.444 23.444 0 01-2.383-.42 1.175 1.175 0 00-1.135.22c-.2.205-.78.776-1.38 1.366a10.854 10.854 0 01-4.956-4.96c.587-.602 1.135-1.178 1.358-1.378a1.177 1.177 0 00.22-1.135 23.411 23.411 0 01-.42-2.388.757.757 0 00-.87-.67H1.034a.567.567 0 00-.514.518c-.208 2.91 1.414 6.025 1.744 6.623v.022l.045.087a13.408 13.408 0 004.917 4.92l.167.095c.756.4 3.763 1.914 6.574 1.706a.567.567 0 00.525-.514v-3.22a.757.757 0 00-.67-.871z" fill="#DE7A69" stroke="#DE7A69" stroke-linecap="round" stroke-linejoin="round"/></svg><svg fill="none" viewBox="0 0 19 14" id="telegram" xmlns="http://www.w3.org/2000/svg"><path d="M16.822.092L.877 5.794c-1.088.405-1.081.968-.2 1.22l4.094 1.184 9.472-5.542c.448-.253.857-.117.52.16L7.09 9.239h-.002.002l-.283 3.914c.414 0 .597-.176.829-.384l1.988-1.793 4.136 2.833c.763.39 1.31.19 1.5-.655l2.715-11.866c.278-1.033-.426-1.501-1.153-1.196z" fill="#DE7A69"/></svg><svg fill="none" viewBox="0 0 19 10" id="vk" xmlns="http://www.w3.org/2000/svg"><path fill-rule="evenodd" clip-rule="evenodd" d="M17.624.677c.125-.39 0-.677-.596-.677h-1.969c-.5 0-.732.248-.857.521 0 0-1.001 2.283-2.42 3.766-.459.43-.667.567-.918.567-.125 0-.313-.137-.313-.528V.677c0-.468-.138-.677-.555-.677H6.9c-.313 0-.5.217-.5.424 0 .443.709.546.781 1.795V4.93c0 .595-.114.703-.365.703-.667 0-2.291-2.293-3.255-4.918C3.374.206 3.185 0 2.682 0H.712C.149 0 .037.248.037.521c0 .488.667 2.908 3.109 6.108C4.773 8.815 7.064 10 9.152 10c1.251 0 1.406-.263 1.406-.716V7.63c0-.526.118-.631.515-.631.293 0 .793.137 1.961 1.19C14.37 9.44 14.59 10 15.34 10h1.97c.562 0 .844-.263.682-.783-.179-.517-.816-1.268-1.662-2.158-.459-.508-1.147-1.054-1.356-1.328-.292-.35-.209-.507 0-.819 0 0 2.4-3.161 2.65-4.235z" fill="#DE7A69"/></svg></svg>