<svg width="17" height="16" viewBox="0 0 17 16" fill="none" xmlns="http://www.w3.org/2000/svg">
<path d="M16.0291 5.27217L15.3581 9.28063C15.2754 9.72343 14.9366 9.99267 14.5459 9.99772H4.76378L4.56956 11.1377H13.8926C14.3835 11.1766 14.7165 11.5387 14.7225 12.0019C14.6868 12.5121 14.339 12.8598 13.8926 12.8661H3.58075C3.02306 12.8139 2.69051 12.351 2.75086 11.8364L3.19228 9.33575L2.52131 2.31175L0.614335 1.68662C0.148321 1.49394 -0.0418787 1.05493 0.0669613 0.601764C0.247935 0.129476 0.681575 -0.0863067 1.10873 0.0317551L3.54543 0.840804C3.8737 0.968946 4.06254 1.24876 4.11046 1.5763L4.25171 2.97375L15.3051 4.26086C15.813 4.37542 16.0887 4.79434 16.0291 5.27217V5.27217ZM6.1074 14.6807C6.1074 15.4093 5.5402 16 4.8405 16C4.1408 16 3.5736 15.4093 3.5736 14.6807C3.5736 13.9521 4.14082 13.3614 4.8405 13.3614C5.54019 13.3614 6.1074 13.9521 6.1074 14.6807ZM13.6708 14.6807C13.6708 15.4093 13.1036 16 12.4038 16C11.7042 16 11.137 15.4093 11.137 14.6807C11.137 13.9521 11.7042 13.3614 12.4038 13.3614C13.1036 13.3614 13.6708 13.9521 13.6708 14.6807Z" fill="white"/>
</svg>
