<svg width="14" height="14" viewBox="0 0 14 14" fill="none" xmlns="http://www.w3.org/2000/svg">
<path d="M7.39099 0.146C7.34454 0.099437 7.28937 0.0624941 7.22862 0.0372877C7.16788 0.0120812 7.10276 -0.000893593 7.03699 -0.000893593C6.97122 -0.000893593 6.9061 0.0120812 6.84535 0.0372877C6.78461 0.0624941 6.72943 0.099437 6.68299 0.146L0.682988 6.146C0.636586 6.19252 0.599808 6.24773 0.574756 6.30847C0.549705 6.36921 0.536871 6.4343 0.536988 6.5V13.5C0.536988 13.6326 0.589667 13.7598 0.683435 13.8536C0.777203 13.9473 0.90438 14 1.03699 14H5.53699C5.6696 14 5.79677 13.9473 5.89054 13.8536C5.98431 13.7598 6.03699 13.6326 6.03699 13.5V9.5H8.03699V13.5C8.03699 13.6326 8.08967 13.7598 8.18343 13.8536C8.2772 13.9473 8.40438 14 8.53699 14H13.037C13.1696 14 13.2968 13.9473 13.3905 13.8536C13.4843 13.7598 13.537 13.6326 13.537 13.5V6.5C13.5371 6.4343 13.5243 6.36921 13.4992 6.30847C13.4742 6.24773 13.4374 6.19252 13.391 6.146L12.037 4.793V1.5C12.037 1.36739 11.9843 1.24022 11.8905 1.14645C11.7968 1.05268 11.6696 1 11.537 1H10.537C10.4044 1 10.2772 1.05268 10.1834 1.14645C10.0897 1.24022 10.037 1.36739 10.037 1.5V2.793L7.39099 0.146ZM1.53699 13V6.707L7.03699 1.207L12.537 6.707V13H9.03699V9C9.03699 8.86739 8.98431 8.74021 8.89054 8.64645C8.79677 8.55268 8.6696 8.5 8.53699 8.5H5.53699C5.40438 8.5 5.2772 8.55268 5.18343 8.64645C5.08967 8.74021 5.03699 8.86739 5.03699 9V13H1.53699Z" fill="#DE7A69"/>
</svg>
