<svg width="16" height="16" viewBox="0 0 16 16" xmlns="http://www.w3.org/2000/svg">
<path d="M13.8228 9.88081C13.0218 9.78192 12.2264 9.64171 11.4398 9.46077C11.2478 9.39656 11.0425 9.38302 10.8437 9.42148C10.6449 9.45993 10.4594 9.54906 10.3051 9.68025C10.1046 9.8846 9.52592 10.456 8.9245 11.0463C6.76971 9.98661 5.02707 8.24184 3.96946 6.08526C4.55574 5.48357 5.1042 4.90837 5.32737 4.70781C5.4585 4.55347 5.54759 4.36788 5.58602 4.16899C5.62446 3.97011 5.61093 3.76467 5.54675 3.57255C5.36565 2.7844 5.22551 1.98739 5.12689 1.18472C5.11633 1.08251 5.08507 0.983516 5.03502 0.893782C4.98497 0.804048 4.91718 0.725451 4.83578 0.662781C4.75438 0.600111 4.66108 0.55468 4.56156 0.529259C4.46204 0.503837 4.35839 0.498958 4.25693 0.514917H1.03425C0.90123 0.526932 0.776708 0.585512 0.68261 0.680345C0.588512 0.775178 0.530872 0.900183 0.519837 1.03335C0.311801 3.9434 1.93448 7.0578 2.26356 7.6557V7.67841L2.30895 7.76545C3.48694 9.80946 5.18309 11.5064 7.22617 12.6849L7.3926 12.7795C8.14909 13.1806 11.1562 14.6943 13.9665 14.4862C14.101 14.4769 14.2277 14.4199 14.3241 14.3256C14.4204 14.2313 14.4801 14.1058 14.4923 13.9715V10.7512C14.5083 10.6497 14.5034 10.546 14.478 10.4464C14.4526 10.3468 14.4072 10.2535 14.3445 10.1721C14.2819 10.0906 14.2033 10.0228 14.1136 9.97273C14.0239 9.92266 13.925 9.89138 13.8228 9.88081Z" stroke-linecap="round" stroke-linejoin="round"/>
</svg>
