<svg width="19" height="10" viewBox="0 0 19 10" fill="none" xmlns="http://www.w3.org/2000/svg">
<path fill-rule="evenodd" clip-rule="evenodd" d="M17.6241 0.677143C17.7486 0.287143 17.6241 0 17.0279 0H15.0592C14.5582 0 14.3272 0.247857 14.2019 0.521429C14.2019 0.521429 13.2007 2.80429 11.7825 4.28714C11.3235 4.71714 11.115 4.85357 10.8645 4.85357C10.7393 4.85357 10.551 4.71714 10.551 4.32643V0.677143C10.551 0.208571 10.413 0 9.99603 0H6.90009C6.58735 0 6.3991 0.217143 6.3991 0.423571C6.3991 0.867143 7.10859 0.97 7.18134 2.21857V4.93143C7.18134 5.52643 7.06659 5.63429 6.81609 5.63429C6.14861 5.63429 4.52489 3.34071 3.56116 0.716428C3.37442 0.205714 3.18542 0 2.68218 0H0.711973C0.149485 0 0.0369873 0.247857 0.0369873 0.521429C0.0369873 1.00857 0.704473 3.42857 3.14567 6.62929C4.77314 8.815 7.06434 10 9.15155 10C10.4033 10 10.5578 9.73714 10.5578 9.28357V7.63143C10.5578 7.105 10.6763 7 11.073 7C11.3655 7 11.8657 7.13714 13.0342 8.19071C14.3692 9.44 14.5889 10 15.3404 10H17.3091C17.8716 10 18.1536 9.73714 17.9916 9.21714C17.8131 8.7 17.1756 7.94929 16.3304 7.05857C15.8714 6.55143 15.1829 6.005 14.9737 5.73143C14.6819 5.38071 14.7652 5.22429 14.9737 4.91214C14.9737 4.91214 17.3736 1.75071 17.6234 0.677143H17.6241Z" fill="#DE7A69"/>
</svg>
