<?xml version="1.0" standalone="no"?>
<!DOCTYPE svg PUBLIC "-//W3C//DTD SVG 20010904//EN"
 "http://www.w3.org/TR/2001/REC-SVG-20010904/DTD/svg10.dtd">
<svg version="1.0" xmlns="http://www.w3.org/2000/svg"
 width="512.000000pt" height="512.000000pt" viewBox="0 0 512.000000 512.000000"
 preserveAspectRatio="xMidYMid meet">
<metadata>
Created by potrace 1.14, written by Peter Selinger 2001-2017
</metadata>
<g transform="translate(0.000000,512.000000) scale(0.100000,-0.100000)"
fill="#000000" stroke="none">
<path d="M415 5110 c-183 -38 -330 -170 -391 -350 -18 -53 -19 -134 -19 -2200
0 -2066 1 -2147 19 -2200 52 -154 168 -274 322 -332 l59 -23 2155 0 2155 0 59
23 c154 58 270 178 322 332 18 53 19 134 19 2200 0 2066 -1 2147 -19 2200 -52
154 -168 274 -322 332 l-59 23 -2130 1 c-1172 1 -2148 -2 -2170 -6z m2535
-891 c360 -44 655 -181 868 -403 94 -98 147 -174 212 -304 193 -388 213 -976
50 -1473 -162 -493 -496 -853 -966 -1039 -307 -122 -711 -145 -1048 -59 l-79
20 -21 -25 c-44 -53 -135 -68 -276 -45 -158 25 -236 102 -256 249 -4 27 -12
56 -18 64 -6 9 -50 40 -97 69 -232 145 -379 299 -379 397 0 47 15 60 67 60 46
0 219 -35 343 -69 41 -12 78 -21 82 -21 4 0 9 15 12 33 75 488 193 899 392
1359 155 359 233 458 371 475 47 5 51 4 72 -25 42 -60 54 -110 54 -227 -1
-119 -34 -304 -133 -729 -78 -339 -131 -618 -165 -879 -21 -165 -24 -153 38
-167 217 -47 489 -63 619 -35 151 31 306 122 437 255 280 283 422 730 390
1219 -15 224 -50 369 -126 513 -108 205 -277 320 -526 359 -205 32 -479 -21
-1017 -196 -251 -82 -305 -95 -389 -95 -80 0 -116 27 -106 79 21 122 220 289
523 439 222 110 460 184 662 205 80 9 331 6 410 -4z"/>
</g>
</svg>
